<?xml version="1.0" encoding="iso-8859-1"?>
<!-- Generator: Adobe Illustrator 17.1.0, SVG Export Plug-In . SVG Version: 6.00 Build 0)  -->
<!DOCTYPE svg PUBLIC "-//W3C//DTD SVG 1.1//EN" "http://www.w3.org/Graphics/SVG/1.1/DTD/svg11.dtd">
<svg xmlns="http://www.w3.org/2000/svg" xmlns:xlink="http://www.w3.org/1999/xlink" version="1.1" id="Capa_1" x="0px" y="0px" viewBox="0 0 475.604 475.604" style="enable-background:new 0 0 475.604 475.604;" xml:space="preserve" width="256px" height="256px">
<g>
	<path d="M446.557,460.604h-32.763v-98.741c11.528-3.273,20-13.888,20-26.452v-38.164c0-15.164-12.337-27.5-27.5-27.5   c-15.163,0-27.5,12.336-27.5,27.5v38.164c0,12.563,8.472,23.178,20,26.452v98.741H361.56v-15.368   c0-35.193-9.385-62.355-27.894-80.733c-23.199-23.033-52.226-23.474-54.323-23.474c-0.036,0-0.065,0.001-0.084,0.001h-37.571   v-22.734c0-0.396-0.04-0.783-0.1-1.163c24.057-9.941,39.262-26.522,48.52-40.897c14.433-22.41,17.689-43.977,17.819-44.884   c0.052-0.357,0.078-0.716,0.078-1.076v-1.606c5.268-1.299,9.851-4.017,13.49-8.046c3.634-4.024,5.951-8.844,7.398-13.741   c3.134-0.899,5.43-3.781,5.43-7.204v-65.736C334.324,60.086,274.238,0,200.382,0C126.525,0,66.439,60.086,66.439,133.942v65.736   c0,4.142,3.357,7.5,7.5,7.5c0.218,0,0.433-0.014,0.646-0.033c1.451,4.807,3.747,9.526,7.316,13.479   c3.68,4.074,8.326,6.804,13.668,8.085v1.567c0,0.36,0.026,0.72,0.078,1.076c0.131,0.907,3.387,22.474,17.819,44.884   c9.258,14.375,24.463,30.956,48.52,40.897c-0.06,0.38-0.1,0.767-0.1,1.163v22.734H124.37c-1.275,0.016-30.869,0.051-54.461,23.474   c-18.509,18.377-27.894,45.54-27.894,80.733v15.368H25.061c-4.143,0-7.5,3.358-7.5,7.5c0,4.142,3.357,7.5,7.5,7.5h421.496   c4.143,0,7.5-3.358,7.5-7.5C454.057,463.962,450.7,460.604,446.557,460.604z M393.795,335.412v-38.164   c0-6.893,5.607-12.5,12.5-12.5c6.892,0,12.5,5.607,12.5,12.5v38.164c0,6.893-5.608,12.5-12.5,12.5   C399.402,347.912,393.795,342.304,393.795,335.412z M202.458,112.337c-0.204,0-0.404,0.015-0.604,0.03   c-0.199-0.016-0.399-0.03-0.604-0.03c-34.138,0-44.753-6.248-46.313-7.314c-1.608-2.124-3.724-2.523-6.434-2.134   c-13.206,1.904-26.351,12.847-36.128,23.516c2.063-7.416,6.138-18.921,13.702-30.667c16.804-26.092,42.038-40.434,75.012-42.63   h1.395c32.767,2.184,57.904,16.371,74.713,42.169c7.629,11.708,11.788,23.336,13.916,30.887   c-9.755-10.593-22.804-21.385-35.91-23.275c-2.709-0.391-4.826,0.01-6.435,2.134C247.211,106.089,236.595,112.337,202.458,112.337z    M310.364,210.569c-0.721,0.798-1.509,1.456-2.358,2.009v-33.601c2.309,0.269,4.632,0.864,6.115,2.02   c0.724,0.564,1.492,1.412,1.696,3.414C316.709,193.151,315.745,204.612,310.364,210.569z M81.439,168.187v-34.244   C81.439,68.357,134.797,15,200.382,15c65.585,0,118.942,53.357,118.942,118.942v32.767c-3.759-1.793-7.83-2.542-11.318-2.799   v-14.361v-15.972c0-0.36-0.026-0.72-0.078-1.076c-0.131-0.907-3.387-22.474-17.819-44.884   c-13.448-20.882-39.439-46.418-86.892-49.493c-0.162-0.01-0.323-0.016-0.485-0.016h-1.887c-0.162,0-0.323,0.005-0.485,0.016   c-47.452,3.075-73.443,28.611-86.892,49.493c-14.433,22.41-17.688,43.977-17.819,44.884c-0.052,0.356-0.078,0.716-0.078,1.076   v15.972v14.347C91.213,164.198,85.907,165.262,81.439,168.187z M87.58,184.412c0.204-1.993,0.964-2.837,1.681-3.4   c1.518-1.193,3.926-1.794,6.31-2.051v33.73c-0.919-0.572-1.766-1.266-2.536-2.119C87.653,204.613,86.689,193.151,87.58,184.412z    M126.378,268.576c-11.735-18.011-15.267-35.842-15.808-38.914v-15.358V153.37c0.021-0.09,0.05-0.179,0.068-0.271   c3.007-5.746,21.724-30.126,37.3-34.76c2.046,1.203,4.984,2.58,9.137,3.888c10.76,3.39,25.622,5.109,44.176,5.109   c0.204,0,0.404-0.015,0.604-0.03c0.199,0.016,0.399,0.03,0.604,0.03c18.554,0,33.417-1.719,44.177-5.109   c4.151-1.308,7.09-2.685,9.136-3.888c15.48,4.604,34.053,28.701,37.235,34.642v61.323v15.368   c-0.529,3.061-3.936,20.472-15.509,38.442c-16.804,26.092-42.038,40.434-75.012,42.63h-1.395   C168.324,308.561,143.186,294.374,126.378,268.576z M169.387,356.03c4.143,0,7.5-3.358,7.5-7.5v-26.469   c7.174,1.836,14.973,3.118,23.472,3.668c0.162,0.01,0.323,0.016,0.485,0.016h1.887c0.162,0,0.323-0.005,0.485-0.016   c8.499-0.551,16.298-1.832,23.472-3.668v26.469c0,4.142,3.357,7.5,7.5,7.5h36.473c-2.974,35.401-32.717,63.305-68.873,63.305   c-36.156,0-65.899-27.904-68.873-63.305H169.387z M57.015,445.236c0-72.83,44.016-86.206,60.902-88.657   c3.275,43.42,39.626,77.756,83.87,77.756c44.232,0,80.574-34.316,83.867-77.719c8.543,1.284,24.205,5.39,37.442,18.532   c15.569,15.457,23.463,39.039,23.463,70.088v15.368H57.015V445.236z" fill="#FFFFFF"/>
	<circle cx="148.551" cy="167.928" r="8.951" fill="#FFFFFF"/>
	<circle cx="255.024" cy="167.928" r="8.951" fill="#FFFFFF"/>
	<path d="M221.722,202.655c0-4.142-3.357-7.5-7.5-7.5c-4.143,0-7.5,3.358-7.5,7.5c0,1.654-1.346,3-3,3h-3.869c-1.654,0-3-1.346-3-3   c0-4.142-3.357-7.5-7.5-7.5c-4.143,0-7.5,3.358-7.5,7.5c0,9.925,8.075,18,18,18h3.869   C213.647,220.655,221.722,212.581,221.722,202.655z" fill="#FFFFFF"/>
	<path d="M403.029,97.37v29.247c-5.401,1.261-9.428,6.094-9.428,11.879c0,6.743,5.466,12.209,12.211,12.209   c6.742,0,12.209-5.466,12.209-12.209c0-0.046-0.007-0.09-0.007-0.136c0.004-0.098,0.015-0.193,0.015-0.291V104.87h22.211v22.33   c-5.396,1.264-9.418,6.095-9.418,11.877c0,6.743,5.466,12.209,12.209,12.209c6.743,0,12.21-5.466,12.21-12.209   c0-0.075-0.01-0.148-0.012-0.223c0.002-0.068,0.011-0.135,0.011-0.204V97.37c0-4.142-3.357-7.5-7.5-7.5h-37.211   C406.386,89.87,403.029,93.228,403.029,97.37z" fill="#FFFFFF"/>
	<path d="M396.289,63.087c6.742,0,12.209-5.466,12.209-12.209c0-0.046-0.007-0.09-0.007-0.136c0.004-0.098,0.015-0.193,0.015-0.291   V17.252h6.393c4.142,0,7.5-3.358,7.5-7.5s-3.358-7.5-7.5-7.5h-13.893c-4.143,0-7.5,3.358-7.5,7.5v29.247   c-5.401,1.261-9.428,6.094-9.428,11.879C384.078,57.621,389.544,63.087,396.289,63.087z" fill="#FFFFFF"/>
	<path d="M223.062,265.503c0.663,0.604,6.824,6.027,18.757,10.127c0.808,0.277,1.63,0.409,2.438,0.409   c3.113,0,6.023-1.955,7.092-5.064c1.347-3.917-0.738-8.184-4.655-9.53c-0.54-0.186-1.063-0.374-1.571-0.565   c1.796-1.64,3.593-3.674,5.32-6.194c2.342-3.417,1.47-8.085-1.946-10.427c-3.42-2.342-8.086-1.469-10.427,1.946   c-4.076,5.948-7.999,6.317-8.839,6.324c-3.288-0.81-6.395,0.768-8.03,3.754C219.538,259.318,220.506,263.171,223.062,265.503z" fill="#FFFFFF"/>
	<path d="M406.295,243.376c-28.534,0-51.748,23.214-51.748,51.748v15.391c0,4.142,3.357,7.5,7.5,7.5s7.5-3.358,7.5-7.5v-15.391   c0-20.263,16.485-36.748,36.748-36.748c20.263,0,36.748,16.485,36.748,36.748v15.391c0,4.142,3.357,7.5,7.5,7.5s7.5-3.358,7.5-7.5   v-15.391C458.043,266.59,434.829,243.376,406.295,243.376z" fill="#FFFFFF"/>
	<circle cx="406.295" cy="295.844" r="4.4" fill="#FFFFFF"/>
	<circle cx="406.295" cy="316.33" r="4.4" fill="#FFFFFF"/>
	<circle cx="406.295" cy="336.815" r="4.4" fill="#FFFFFF"/>
</g>
<g>
</g>
<g>
</g>
<g>
</g>
<g>
</g>
<g>
</g>
<g>
</g>
<g>
</g>
<g>
</g>
<g>
</g>
<g>
</g>
<g>
</g>
<g>
</g>
<g>
</g>
<g>
</g>
<g>
</g>
</svg>
